<svg width="129" height="346" viewBox="0 0 129 346" fill="none" xmlns="http://www.w3.org/2000/svg">
<g clip-path="url(#clip0_114_91)">
<mask id="mask0_114_91" style="mask-type:luminance" maskUnits="userSpaceOnUse" x="-413" y="0" width="960" height="540">
<path d="M-413 0H547V540H-413V0Z" fill="white"/>
</mask>
<g mask="url(#mask0_114_91)">
<path fill-rule="evenodd" clip-rule="evenodd" d="M7.33707 0.000610352H121.046C123.057 0.000610352 124.986 0.799577 126.408 2.22172C127.83 3.64389 128.629 5.57278 128.629 7.584V338.695C128.629 340.706 127.83 342.635 126.408 344.057C124.986 345.479 123.057 346.278 121.046 346.278H7.33707C5.32584 346.278 3.39694 345.479 1.97479 344.057C0.552643 342.635 -0.246338 340.706 -0.246338 338.695V7.584C-0.246338 5.57278 0.552643 3.64389 1.97479 2.22172C3.39694 0.799577 5.32584 0.000610352 7.33707 0.000610352Z" fill="#0B5CF4"/>
<path d="M19.2275 331.546V234.483H68.8682C81.6286 234.483 91.1494 236.816 97.4307 241.483C103.722 246.15 106.868 252.275 106.868 259.858C106.868 264.848 105.55 269.218 102.915 272.968C100.28 276.707 96.5817 279.665 91.8213 281.843C87.0609 284.009 81.3994 285.093 74.8369 285.093L77.6025 278.436C84.4463 278.436 90.4098 279.478 95.4932 281.561C100.576 283.645 104.524 286.65 107.337 290.577C110.16 294.504 111.571 299.285 111.571 304.921C111.571 313.337 108.175 319.879 101.384 324.546C94.5921 329.212 84.6807 331.546 71.6494 331.546H19.2275ZM46.3994 311.718H69.4307C74.139 311.718 77.7171 310.91 80.165 309.296C82.613 307.671 83.8369 305.197 83.8369 301.874C83.8369 298.551 82.613 296.082 80.165 294.468C77.7171 292.843 74.139 292.03 69.4307 292.03H44.4619V273.03H65.2588C69.8838 273.03 73.3525 272.244 75.665 270.671C77.9775 269.098 79.1338 266.744 79.1338 263.608C79.1338 260.462 77.9775 258.129 75.665 256.608C73.3525 255.077 69.8838 254.311 65.2588 254.311H46.3994V311.718Z" fill="white"/>
<path fill-rule="evenodd" clip-rule="evenodd" d="M-0.246338 201.874H128.676V213.459H-0.246338V201.874Z" fill="white"/>
<path fill-rule="evenodd" clip-rule="evenodd" d="M-0.246338 180.99H128.676V192.968H-0.246338V180.99Z" fill="white"/>
<path fill-rule="evenodd" clip-rule="evenodd" d="M-0.246338 160.359H128.676V171.99H-0.246338V160.359Z" fill="white"/>
</g>
</g>
<defs>
<clipPath id="clip0_114_91">
<rect width="129" height="346" fill="white"/>
</clipPath>
</defs>
</svg>
