<svg width="129" height="186" viewBox="0 0 129 186" fill="none" xmlns="http://www.w3.org/2000/svg">
<g clip-path="url(#clip0_114_91)">
<mask id="mask0_114_91" style="mask-type:luminance" maskUnits="userSpaceOnUse" x="-413" y="-160" width="960" height="540">
<path d="M-413 -160H547V380H-413V-160Z" fill="white"/>
</mask>
<g mask="url(#mask0_114_91)">
<path fill-rule="evenodd" clip-rule="evenodd" d="M7.33707 -159.999H121.046C123.057 -159.999 124.986 -159.2 126.408 -157.778C127.83 -156.356 128.629 -154.427 128.629 -152.416V178.695C128.629 180.706 127.83 182.635 126.408 184.057C124.986 185.479 123.057 186.278 121.046 186.278H7.33707C5.32584 186.278 3.39694 185.479 1.97479 184.057C0.552643 182.635 -0.246338 180.706 -0.246338 178.695V-152.416C-0.246338 -154.427 0.552643 -156.356 1.97479 -157.778C3.39694 -159.2 5.32584 -159.999 7.33707 -159.999Z" fill="#0B5CF4"/>
<path d="M19.2275 171.546V74.4832H68.8682C81.6286 74.4832 91.1494 76.8165 97.4307 81.4832C103.722 86.1498 106.868 92.2748 106.868 99.8582C106.868 104.848 105.55 109.218 102.915 112.968C100.28 116.707 96.5817 119.665 91.8213 121.843C87.0609 124.009 81.3994 125.093 74.8369 125.093L77.6025 118.436C84.4463 118.436 90.4098 119.478 95.4932 121.561C100.576 123.645 104.524 126.65 107.337 130.577C110.16 134.504 111.571 139.285 111.571 144.921C111.571 153.337 108.175 159.879 101.384 164.546C94.5921 169.212 84.6807 171.546 71.6494 171.546H19.2275ZM46.3994 151.718H69.4307C74.139 151.718 77.7171 150.91 80.165 149.296C82.613 147.671 83.8369 145.197 83.8369 141.874C83.8369 138.551 82.613 136.082 80.165 134.468C77.7171 132.843 74.139 132.03 69.4307 132.03H44.4619V113.03H65.2588C69.8838 113.03 73.3525 112.244 75.665 110.671C77.9775 109.098 79.1338 106.744 79.1338 103.608C79.1338 100.462 77.9775 98.129 75.665 96.6082C73.3525 95.0769 69.8838 94.3113 65.2588 94.3113H46.3994V151.718Z" fill="white"/>
<path fill-rule="evenodd" clip-rule="evenodd" d="M-0.246338 41.8744H128.676V53.4591H-0.246338V41.8744Z" fill="white"/>
<path fill-rule="evenodd" clip-rule="evenodd" d="M-0.246338 20.99H128.676V32.9684H-0.246338V20.99Z" fill="white"/>
<path fill-rule="evenodd" clip-rule="evenodd" d="M-0.246338 0.358521H128.676V11.99H-0.246338V0.358521Z" fill="white"/>
</g>
</g>
<defs>
<clipPath id="clip0_114_91">
<rect width="129" height="186" fill="white"/>
</clipPath>
</defs>
</svg>
