<svg width="129" height="129" viewBox="0 0 129 129" fill="none" xmlns="http://www.w3.org/2000/svg">
<g clip-path="url(#clip0_23_2)">
<path fill-rule="evenodd" clip-rule="evenodd" d="M7.59075 0H121.409C123.422 0 125.353 0.297642 126.777 0.827438C128.2 1.35725 129 2.07582 129 2.82507V126.175C129 126.924 128.2 127.643 126.777 128.173C125.353 128.702 123.422 129 121.409 129H7.59075C5.57757 129 3.64681 128.702 2.22328 128.173C0.799754 127.643 0 126.924 0 126.175V2.82507C0 2.07582 0.799754 1.35725 2.22328 0.827438C3.64681 0.297642 5.57757 0 7.59075 0Z" fill="#0B6DFF"/>
<path d="M19.2275 114.546V17.4832H68.8682C81.6286 17.4832 91.1494 19.8165 97.4307 24.4832C103.722 29.1498 106.868 35.2748 106.868 42.8582C106.868 47.8477 105.55 52.2175 102.915 55.9675C100.28 59.7071 96.5817 62.6654 91.8213 64.8425C87.0609 67.0092 81.3994 68.0925 74.8369 68.0925L77.6025 61.4363C84.4463 61.4363 90.4098 62.4779 95.4932 64.5613C100.576 66.6446 104.524 69.6498 107.337 73.5769C110.16 77.504 111.571 82.2852 111.571 87.9207C111.571 96.3373 108.175 102.879 101.384 107.546C94.5921 112.212 84.6807 114.546 71.6494 114.546H19.2275ZM46.3994 94.7175H69.4307C74.139 94.7175 77.7171 93.9102 80.165 92.2957C82.613 90.6707 83.8369 88.1967 83.8369 84.8738C83.8369 81.5509 82.613 79.0821 80.165 77.4675C77.7171 75.8425 74.139 75.03 69.4307 75.03H44.4619V56.03H65.2588C69.8838 56.03 73.3525 55.2436 75.665 53.6707C77.9775 52.0977 79.1338 49.7436 79.1338 46.6082C79.1338 43.4623 77.9775 41.129 75.665 39.6082C73.3525 38.0769 69.8838 37.3113 65.2588 37.3113H46.3994V94.7175Z" fill="white"/>
</g>
<defs>
<clipPath id="clip0_23_2">
<rect width="129" height="129" fill="white"/>
</clipPath>
</defs>
</svg>
